<?xml version="1.0" encoding="utf-8"?>
<!-- Generator: Adobe Illustrator 28.0.0, SVG Export Plug-In . SVG Version: 6.00 Build 0)  -->
<svg version="1.1" id="Camada_1" xmlns="http://www.w3.org/2000/svg" xmlns:xlink="http://www.w3.org/1999/xlink" x="0px" y="0px"
	 viewBox="0 0 1000 1000" style="enable-background:new 0 0 1000 1000;" xml:space="preserve">
<style type="text/css">
	.st0{fill:#C5253E;}
	.st1{fill:#FFFFFF;}
</style>
<g>
	<circle class="st0" cx="500.5" cy="499.5" r="486.5"/>
	<path class="st1" d="M237.3,448v265.7c0,6.6,5.3,11.9,11.9,11.9h125.9c6.6,0,11.9-5.3,11.9-11.9V450.3
		c0-54.8,44.8-101.1,99.6-100.1c53.2,0.9,96.2,44.5,96.2,97.9v153.4c0,36.7,14.9,69.9,38.9,94c24,24.1,57.3,38.9,94,38.9
		c47.9,0,89.9-25.4,113.2-63.4c0.5-0.7,0.9-1.5,1.3-2.2c0.7-1.6,1.1-3.3,1.1-5.2c-0.1-5.3-3.9-10.1-9.1-11.4
		c-2.7-0.7-5.2-0.4-7.4,0.5c-0.1,0-0.3,0.1-0.4,0.2c-7.2,3.1-15.1,4.9-23.4,4.9c-32.3,0-58.4-26.2-58.4-58.5V451.8
		c0-135.9-107.9-249.3-243.8-251.4C350.5,198.3,237.3,310.2,237.3,448z"/>
</g>
</svg>
